<svg xmlns="http://www.w3.org/2000/svg" viewBox="0 0 200 200"><path fill-rule="evenodd" clip-rule="evenodd" d="M158.652 99.167c3.056-6.68 4.562-20.062 4.562-20.062l-3.888-7.205s-14.574-4.864-28.886-7.655c0 0-4.565-5.691-6.589-8.321l2.464-4.442s-4.254-4.24-5.46-5.218c.321-.409.648-.844.984-1.31 4.323-6.005 5.799-13.516 4.157-21.148l-.048-.202-.017-.057c-.927-3.224-2.614-9.764-7.344-8.35-2.128.637-4.047 3.065-5.563 4.607a87.346 87.346 0 0 0-5.027 5.614c-1.673 2.025-3.127 4.235-4.796 6.255-2.093 2.532-3.831 5.156-5.179 7.815l-2.748-.61a45.045 45.045 0 0 0-5.398-4.278c-3.373-2.272-7.152-4.942-11.137-5.96-2.983-.76-6.237-.905-9.3-1.126-3.875-.28-7.865-.475-11.74-.04l-.096.01-.882.077c-1.836.2-4.49.71-6.703 2.004l-.188.11-.17.137c-.926.745-1.472 1.607-1.607 2.525-.506 2.4.966 3.666 3.153 5.547 1.061.912 2.676 2.21 4.428 3.283l.543.436c.604.487 1.207.973 1.812 1.457.442.615.657 1.001.702 1.098 1.91 4.2 5.908 10.3 18.532 16.25l-.304 1.703-2.175.433c-11.8 2.346-23.963 5.436-33.369 8.478l-1.068.345-3.874 7.132s1.068 9.398 3.825 18.09l.817 2.578H33.04v63.41l4.215-2.039a132.148 132.148 0 0 1 9.076-3.974l1.853-.729v-.012l2.596-.918a138.696 138.696 0 0 1 8.837-2.791l-.007 12.61 19.127-.004 17.566 16.036 6.25.007 18.158-16.02 19.531.013s.005-12.679.011-12.678c3.31.922 6.613 1.975 9.817 3.131l1.426.514 1.581.614a132.37 132.37 0 0 1 9.665 4.201l4.214 2.037V99.167h-8.304Z" fill="#fff"/><path fill-rule="evenodd" clip-rule="evenodd" d="M69.628 87.668c-1.727 1.012-6.687 3.87-9.85 5.664 6.002-1.72 11.953-3.455 17.809-5.167.17-1.533.419-3.286.714-5.133-2.624 1.614-5.28 3.24-7.966 4.876.06-1.84-.712-.238-.707-.24ZM116.654 39.708c3.248-4.713 4.308-9.755 3.152-14.986a.287.287 0 0 1-.008-.04c-.126-.45-.227-.627-.278-.695-.163.097-.378.289-.61.525.062.178.198.542.203.583l.014.077c1.137 5.283-.496 10.245-3.808 14.852-1.941 2.705-4.038 4.73-4.938 5.43.163.072.329.147.503.229.565-.405 3.386-2.517 5.77-5.975ZM114.495 56.937c3.645 4.778 7.832 9.3 11.736 14.185 1.227 1.444 2.236 2.887 3.477 4.343l.239-.074.151-.447c-4.967-6.538-9.276-12.345-13.172-17.754l-.699-.972s.753-2.362 1.117-3.509c-5.66-5.094-10.439-6.158-10.487-6.168a13.533 13.533 0 0 0-3.059-.327h-.043c-.599.001-1.102.036-1.421.066a7.652 7.652 0 0 0-.53.06l-.084.016-.191.035c-1.765.408-4.014.82-5.788 1.224 1.224.789 1.69.904 2.92 1.69l-.008.02.049.029c.293.126.53.26.685.404.368.226.46.27.778.501l.401.04c-.8-1.173-2.81-3.235 2.41-3.995-.014 0 .014 0 0 0 1.599-.365 10.736 3.42 12.161 6.982l-.642 3.651ZM60.637 34.895c3.994.377 15.913 1.05 24.589 7.136.735.446 5.32 3.42 8.189 6.282l.112.005c-3.69-4.572-13.054-13.645-29.254-13.645-1.428 0-2.898.073-4.368.214l.732.008ZM85.232 74.412c.116.237.286.534.413.756l.126-.058c.04.064.042.066.099.148.057.083.124.181.2.284.242.346.412.54.434.564l.018.018.023.028c1.214 1.477 3.785 3.962 7.51 4.224.377.05.745.076 1.105.076a6.66 6.66 0 0 0 2.409-.468c-2.874-.22-4.022-6.51-4.369-9.074l-.174-.046c-.658 6.962-7.686 5.088-5.98-12.001-2.021 3.38-3.043 6.663-3.029 9.77v.017l-.38 1.723a8.082 8.082 0 0 1-.043.195l-.18-.003c.088 1.034.294 1.968.6 2.81 0 0 .859 2.25 1.634 2.962-.183-.29-.263-.466-.263-.465-.07-.473-.14-.945-.208-1.416l.055-.044ZM114.768 29.843a8.431 8.431 0 0 1-.499.509 38.737 38.737 0 0 0-2.292 2.038c-2.613 2.507-6.171 6.543-8.385 11.6h.18c.162 0 .329.002.501.007.027 0 .054.003.082.004.089-.154.19-.327.304-.52 1.466-2.486 4.827-8 6.99-9.51.001.021-5.056 7.649-5.278 10.217l.014.002a11.056 11.056 0 0 0 1.816.425c-.228-2.411 5.78-13.385 6.457-14.62.053-.068.088-.117.11-.152ZM125.378 88.192c-.609.35-1.19.657-1.743.92 3.635 1.664 7.314 3.332 11.001 4.984l1.334.599.192.085a1321.987 1321.987 0 0 1-10.784-6.588ZM80.436 80.309l.084-.058-.084.057ZM116.162 68.835l-.01.005c-.75-1.044-1.467-2.039-2.201-3.066 1.597 3.54 5.37 9.917 7.075 13.164l2.263.599-2.828-4.737c-1.084-1.567-3.29-4.486-4.299-5.965Z" fill="#C3D0E4"/><path fill-rule="evenodd" clip-rule="evenodd" d="m133.186 85.722-.066.729-.682.263c-.862.333-1.723.667-2.582 1.003-.55-.445-1.102-.89-1.653-1.338.148-.105.27-.193.357-.257 1.044-.415 2.089-.829 3.137-1.24l.087-.035.008-.094c.233-2.995.489-6.174.781-9.717l.043-.6-.054-.063c-5.66-6.757-10.405-12.533-14.728-17.98.75-1.33 1.498-2.663 2.245-3.999l.058-.103-.642-.602c-2.895-2.726-4.22-3.456-6.034-4.415.956-.816 3.734-3.474 5.505-6.812 2.885-5.443 3.256-10.256 2.01-15.997-.453-1.938-.899-3.092-1.181-3.06 0 0-.063-.016-.155.069a1172.97 1172.97 0 0 1-2.761 3.463 889.922 889.922 0 0 1-2.718 3.93c-.774.579-2.95 2.215-5.506 5.011l.192-1.199-2.711 4.21c-1.584 2.078-3.092 4.489-4.197 7.167l-.769.143-.059.012-1.14.263.658.56-2.862-.057-.354.931c-1.003-.05-2.864-.52-2.864-.52l-.238.687c-1.502-1.725-4.073-4.546-7.66-6.938-.7-.464-1.413-.898-2.137-1.305l-6.09-3.556.088.873c-4.597-1.573-9.556-2.275-14.805-2.275-2.297 0-4.391.023-6.801.349-.463.062-1.083.141-1.204.6-.12.452.053.933.43 1.197 1.78 1.25 3.564 2.494 5.348 3.734.4.512 1.344 1.772 1.825 2.804 1.855 4.05 5.867 10.666 21.682 16.71-1.105 2.666-1.544 4.648-1.822 6.881-.4-.658-.815-1.34-1.063-1.773.037-.03-1.496 6.848-2.832 14.072L55.963 94.642l5.704-4.713L75.888 78.18c-.54.422-.464.348 1.339-1.106l2.977-16.652.121-.501 1.261 1.307.33-1.953c-14.5-6.03-18.673-12.201-20.552-16.332-.21-.456-.67-1.177-1.238-1.934a561.833 561.833 0 0 1-2.104-1.691l-.7-.562c-1.642-.987-3.19-2.228-4.2-3.098-2.177-1.872-2.358-2.11-2.165-2.844-.02-.26.543-.714.543-.714 1.825-1.066 4.157-1.47 5.54-1.62l.864-.074a54.322 54.322 0 0 1 7.142-.403c4.408.057 8.605.711 12.566 1.945l-.071-.662s3.872 1.565 7.525 3.83c1.08.593 2.14 1.23 3.175 1.923a41.643 41.643 0 0 1 6.916 5.848l.872 1.115.82-1.767 2.842.63.513-1.154c1.504-3.203 3.458-5.999 5.345-8.27l2.851-4.178-.04 1.087a41.57 41.57 0 0 1 3.453-3.135c.681-.872 1.361-1.747 2.041-2.623 1.609-2.019 3.257-4.099 4.899-6.19.463-.49.918-.449.918-.449.839 0 1.819.776 3.438 6.405l.016.066c1.376 6.392.342 13.242-3.669 18.814-.972 1.35-1.908 2.482-2.912 3.442 0 0 3.4 2.33 6.16 5.254l-.446.801-1.904 3.446c3.854 5.102 8.457 10.674 13.488 17.005l.422.526-1.078 12.01Z" fill="#C3D0E4"/><path fill-rule="evenodd" clip-rule="evenodd" d="M87.63 94.381c1.189-2.065 6.72-11.039 15.028-11.206 3.009 1.148 4.049 5.115 4.312 6.415l.166.007c.582-2.63.817-4.387.912-5.423a9.092 9.092 0 0 0-.17-.076c-1.461-.818-2.937-1.216-3.981-1.408a11.972 11.972 0 0 0-1.449-.18l.037-.084.467-1.056-3.096.715-3.91.904.236-.969c-3.783-.63-4.007-.733-6.468-1.863l-.017-.007-.172-.09-.019-.009c-.116-.06-.227-.123-.34-.186a3094.89 3094.89 0 0 1-1.726 14.524l.19-.008Z" fill="#C3D0E4"/><path fill-rule="evenodd" clip-rule="evenodd" d="m111.003 83.421.003.134s.006-.05-.003-.134Z" fill="#FDFDFD"/><path fill-rule="evenodd" clip-rule="evenodd" d="M99.387 49.758c-.156-.144-.392-.278-.685-.404.23.132.46.267.685.404Z" fill="#F9F9F9"/><path fill-rule="evenodd" clip-rule="evenodd" d="M67.823 150.868a844.75 844.75 0 0 1-.79 5.889c-.305-1.869-.607-3.704-.906-5.503a103.34 103.34 0 0 0-3.573.914l-.005 9.616 2.635-.001-.03-5.393c.297 1.761.598 3.559.901 5.393h2.023c.271-1.919.54-3.868.807-5.85l.065 5.849h2.635c-.051-3.878-.103-7.76-.153-11.643-1.207.224-2.41.466-3.61.729ZM76.862 159.747l-.052-3.572c.531-.033 1.063-.066 1.595-.097l-.03-2.071c-.532.042-1.064.086-1.596.132l-.04-2.805a204.77 204.77 0 0 1 1.76-.199l-.03-2.076c-1.515.195-3.026.414-4.533.66l.172 12.063 4.546.001-.03-2.074c-.587.011-1.175.024-1.762.038ZM85.662 159.591l-1.784.024-.141-11.154c-.926.086-1.852.179-2.777.282l.181 13.04 4.546.002-.025-2.194ZM91.478 159.532l-.576.005-.031-3.949.579-.014c.087.104.174.209.262.312l.025 3.427-.26.219Zm-.649-9.317.58-.023.266.326.017 2.575-.26.227a55.1 55.1 0 0 0-.578.016l-.025-3.121Zm3.648-1.296a172.12 172.12 0 0 0-1.132-1.063c-1.783.063-3.566.153-5.345.27.046 4.554.09 9.108.137 13.66l5.287.003c.37-.364.739-.731 1.108-1.097l-.026-5.707-.619-.648.613-.65-.023-4.768ZM100.682 159.285l-.261.221-.297-.001-.279-.222.002-9.03.282-.221.3.001.263.221-.01 9.031Zm-2.545-11.534c-.37.371-.739.743-1.106 1.115l.027 11.823 1.098 1.102 4.193.003 1.118-1.1.042-11.812c-.373-.374-.748-.748-1.123-1.12a200.628 200.628 0 0 0-4.25-.011ZM106.068 147.849l-.076 12.853 1.089 1.095 4.194.003c.374-.359.749-.714 1.124-1.07l.14-12.544c-.936-.066-1.873-.125-2.81-.176l-.103 11.328-.262.214c-.099-.001-.198-.001-.297-.004l-.277-.219.095-11.362a175.83 175.83 0 0 0-2.817-.118ZM118.645 153.821a60.36 60.36 0 0 1-.264.188l-.576-.037c.015-1.059.029-2.117.045-3.175l.577.051.257.23-.039 2.743Zm-3.563-5.434-.171 13.416 2.783.001.081-5.691.576.028.256.217c-.025 1.817-.051 3.632-.078 5.448h2.783l.09-5.906-.714-.666c.244-.186.489-.37.734-.553.022-1.532.045-3.066.07-4.601-.367-.377-.732-.758-1.099-1.141a154.285 154.285 0 0 0-5.311-.552ZM127.738 154.91a613.733 613.733 0 0 1-1.164-5.071c-.849-.144-1.697-.28-2.548-.407l-.191 12.376 2.598.003.074-4.939c.395 1.676.791 3.323 1.188 4.939l2.542.001.14-11.265c-.855-.173-1.712-.338-2.569-.492l-.07 4.855ZM132.76 161.814l4.546.002.001-1.566-1.756-.075c.004-.958.01-1.918.013-2.877.527.059 1.054.121 1.579.186l.002-1.574c-.525-.086-1.048-.17-1.573-.252.004-.753.008-1.506.01-2.26.577.124 1.153.252 1.728.384v-1.566a101.046 101.046 0 0 0-4.447-1.117l-.103 10.715ZM108.679 63.807c-4.334 2.629-7.855 1.639-8.67 1.348l-.044.065c1.881 1.93 2.427 4.593 2.568 5.567l.127.015c.3-.762 1.366-2.067 2.53-3.35l-1.687-.008 3.744-2.16c.68-.69 1.229-1.227 1.459-1.45l-.027-.027ZM134.875 69.582c8.249 2.516 12.765 4.419 19.404 7.167-.23 2.627-.747 8.98-3.263 15.879a141.19 141.19 0 0 0 5.254 4.417c3.551-10.484 3.582-17.18 3.638-17.953a108.043 108.043 0 0 0-2.56-4.745c-8.044-2.593-13.944-4.28-24-6.465l1.527 1.7Z" fill="#003CA0"/><path fill-rule="evenodd" clip-rule="evenodd" d="M118.761 87.994c-3.555 0-6.915-1.047-7.275-1.29-.127-.396-.099-1.324-.116-2.096l.054.012.006.001c.541.119 1.058.242 1.548.368 3.759.971 5.86 2.147 6.973 2.815l.146.088c-.478.142-1.336.102-1.336.102Zm10.186-4.14.71-1.444.08-.162.101-.206.533-1.084.843-1.777-.444 4.395-2.06.76.237-.483Zm-18.566-38.4c-.902-.4-1.627-.661-2.105-.816l-.075-.023a11.074 11.074 0 0 0-1.816-.425l-.014-.002c.222-2.569 5.279-10.196 5.278-10.216-2.163 1.508-5.524 7.023-6.99 9.51-.114.192-.215.365-.304.519l-.082-.004a15.676 15.676 0 0 0-.501-.008h-.18c2.215-5.056 5.772-9.092 8.385-11.599a38.737 38.737 0 0 1 2.292-2.038c.212-.202.373-.366.499-.509a5.47 5.47 0 0 0 .103-.12c.891-1.197 1.783-2.4 2.672-3.607l.301-.382c.32-.405.713-.865 1.066-1.222.232-.236.447-.428.61-.524.051.067.152.245.278.694l.008.04c1.156 5.23.096 10.273-3.152 14.986-2.384 3.459-5.205 5.57-5.77 5.975a25.5 25.5 0 0 0-.503-.23Zm-32.73 44.703c.352-1.027 1.034-3.34 1.63-5.524.37-1.347.762-2.82 1.155-4.324v-.001c1.003-3.84 2.014-7.887 2.715-10.61.04.293.09.582.148.866l.114.001.181.003.043-.195.38-1.723v-.016c-.013-3.107 1.008-6.391 3.03-9.771.177-.295.358-.591.55-.888l.029-.045-.196-1.754-.088-.032c-17.944-6.622-20.999-13.346-22.004-15.557-.655-1.41-1.947-3.064-2.209-3.391a1.063 1.063 0 0 0-.225-.21l-2.213-1.549-.786-.55c1.47-.141 2.94-.214 4.368-.214 16.2 0 25.565 9.073 29.254 13.645l.114.007.067.005c.012 0 .022.002.034.003 1.3.098 3.613.46 4.908 1l.002-.008.008-.02c-1.23-.785-1.695-.901-2.92-1.69 1.775-.404 4.023-.816 5.789-1.224l.191-.035.084-.016c.018-.003.207-.031.53-.06.318-.03.822-.065 1.421-.066h.043c1.098 0 2.127.11 3.059.327.048.01 4.827 1.074 10.487 6.168l-1.117 3.51.699.971c3.896 5.409 8.205 11.216 13.172 17.754l-.151.447-.239.074c-1.084.334-2.815.824-3.84.897-.017.002-.033.002-.05.002-.571 0-.591-.095-1.574-.645a36.462 36.462 0 0 0-1.025-.56l-.816-.456-8.789-9.89.038.542.299.419c.734 1.027 1.451 2.022 2.201 3.066l.01-.005c1.009 1.479 3.215 4.398 4.299 5.965l2.828 4.737 4.632 1.776c-.415 1.243-.619 2.057-1.034 3.308l-2.767 1.754a9.984 9.984 0 0 1-1.037.601c-1.797.768-1.868.708-1.868.708-.283.074-.446.094-.737.142l-.11-.084-5.749-4.256-2.127-1.625-.423-.322a26.937 26.937 0 0 1-1.044 1.036 10.431 10.431 0 0 0-.019.98c-2.98-1.945-8.747-4.652-8.747-4.652-.26-1.038.233-2.05.436-2.407-.039-.05-.081-.1-.117-.148l-.151-.313c-.183.267-2.06 2.868-4.858 3.949a6.654 6.654 0 0 1-2.41.468c-.359 0-.727-.026-1.104-.076-3.725-.263-6.296-2.747-7.51-4.225l-.023-.027-.018-.017a6.196 6.196 0 0 1-.433-.565 7.385 7.385 0 0 1-.201-.284c-.057-.082-.059-.084-.099-.147l-.126.057a14.724 14.724 0 0 1-.411-.76l-.061.044c.07.474.142.944.212 1.42 0-.001.08.176.263.465a7.7 7.7 0 0 0 .6.817c.823 1.041 1.673 2.011 2.919 2.71.112.064.223.128.34.187l.018.01.172.09.017.006c2.461 1.13 2.685 1.233 6.468 1.863l-.237.969 3.91-.903 3.097-.716-.467 1.056-.037.084s.444.014 1.148.127c.096.016.196.033.301.053 1.044.192 2.52.59 3.981 1.408l.17.076c.471.21.879.436 1.218.677.313.964.653 2.07.668 2.13l.281 1.276.47.228c.052.026 5.162 1.793 8.746 1.793.224 0 .438-.01.641-.03a7.305 7.305 0 0 0 1.127-.21c.731-.192 1.547-.503 2.436-.926.553-.263 1.134-.57 1.743-.92 3.815 2.354 7.378 4.531 10.784 6.588 1.708 1.031 3.378 2.034 5.015 3.011l.065.038.821-.326-.203-.163a1237.952 1237.952 0 0 1-5.451-4.36 1479.27 1479.27 0 0 1-8.206-6.6l.357-.258c1.044-.415 2.088-.829 3.137-1.24l.087-.035.008-.094c.233-2.995.489-6.174.781-9.717l.043-.6-.055-.064c-5.659-6.756-10.404-12.532-14.727-17.98.75-1.329 1.498-2.662 2.245-3.998l.058-.103-.642-.601c-2.895-2.727-4.22-3.457-6.034-4.416.956-.816 3.734-3.474 5.505-6.812 2.884-5.443 3.256-10.256 2.01-15.997-.453-1.937-.899-3.092-1.181-3.06 0 0-.063-.015-.155.069a1172.97 1172.97 0 0 1-2.761 3.464 895.8 895.8 0 0 1-2.718 3.93c-.774.578-2.95 2.213-5.506 5.01l.192-1.199-2.711 4.21c-1.584 2.078-3.091 4.489-4.197 7.167l-.769.143-.059.012-1.14.263.658.56-2.863-.057-.353.931c-1.004-.05-2.864-.52-2.864-.52l-.238.687c-1.502-1.725-4.073-4.546-7.66-6.938a33.996 33.996 0 0 0-1.601-.99l.006.002-.542-.317-6.09-3.556.088.873c-4.597-1.573-9.556-2.276-14.805-2.276-2.297 0-4.39.024-6.801.35-.463.062-1.083.141-1.204.6-.12.452.053.934.43 1.197 1.78 1.25 3.564 2.494 5.348 3.734.4.512 1.344 1.772 1.825 2.804 1.854 4.05 5.866 10.666 21.682 16.71-1.105 2.666-1.544 4.648-1.822 6.881-.4-.658-.815-1.34-1.063-1.773.037-.03-1.496 6.849-2.832 14.072L55.963 94.642l1.498-.011c.48-.261 1.307-.727 2.316-1.299 3.164-1.794 8.124-4.652 9.85-5.664-.004.002.767-1.6.708.24 2.686-1.635 5.342-3.262 7.966-4.876-.295 1.848-.544 3.6-.714 5.133-.062.566-.188 1.556-.228 2.056l.292-.064Z" fill="#003CA0"/><path fill-rule="evenodd" clip-rule="evenodd" d="M104.449 60.17c-.178.291-.383.604-.957.557.333-.21.285-.694.387-1.07.526.244.57.513.57.513Zm-1.787-5.213.662 1.894-1.16-1.004c-1.696-1.37-3.69-2.484-5.93-3.302-.68.05-1.265.124-1.66.182 1.118.515 2.151 1.154 3.044 1.963.65.589 2.056 2.027 1.16 2.823-.366.186-.609.088-.841-.03l-.108.108c.104.105.396.278.512.361.637.464 1.337 1.131 1.891 1.719-.081-.789.427-1.158 1.05-1.45-.26-.527-.666-.859-1.047-1.226.677.244 1.475.907 2.101 1.441-.376.22-.647.267-.851.52-1.675 2.064 3.01 4.07 3.682 1.43.363.102.733.196 1.124.262-.1.16-.628.3-.826.215.193 1.974-2.079 2.873-4.108 2.735l.046.105c1.766.76 4.914-.678 6.174-1.938.203-.202.392-.606.643-.716.156-.068.601.148.909.255.726-.383 3.069-1.622 4.615-2.49l-.679.028c-2.072.538-4.502.751-6.018.329-1.69-.58-3.999-3.71-4.358-4.208l-.027-.006ZM49.754 122.782a1894.748 1894.748 0 0 1-4.43-20.679h-9.348v55.791a134.574 134.574 0 0 1 9.28-4.062l.083-21.362c1.494 6.772 2.98 13.313 4.462 19.666a140.362 140.362 0 0 1 9.221-2.906l.327-47.127h-9.485l-.11 20.679ZM76.13 137.798c-.32.268-.641.539-.96.81-.363.05-.728.099-1.09.151-.338-.182-.678-.362-1.018-.544l.19-28.264c.34-.241.681-.481 1.022-.72.362-.009.724-.02 1.085-.03.315.223.63.44.946.659-.06 9.312-.117 18.624-.176 27.938Zm-8.99-35.694a245.401 245.401 0 0 0-4.024 3.621l-.28 38.881c1.325.902 2.651 1.797 3.979 2.687a152.652 152.652 0 0 1 15.419-2.561 242.677 242.677 0 0 1 4.122-3.731l.146-35.582a625.192 625.192 0 0 1-4.052-3.315H67.14ZM102.582 118.929c-.702-.005-1.408-.006-2.11-.006l-.001-10.046c.702 0 1.403 0 2.104.003l.952.657c.003 2.914.005 5.829.009 8.743-.317.217-.635.433-.954.649Zm11.19 5.769c-.889-.724-1.779-1.44-2.665-2.15.883-.628 1.766-1.26 2.648-1.889l-.06-15.244a780.488 780.488 0 0 0-4.079-3.312H90.308l-.127 41.922c3.428-.216 6.86-.322 10.292-.318l-.001-18.009c.706 0 1.41.003 2.116.009.319.221.636.443.956.663l.018 17.371c3.432.068 6.862.249 10.288.54l-.078-19.583ZM115.431 102.104l.031 6.899c2.15.034 4.297.078 6.446.129l.215 36.145c3.417.486 6.828 1.088 10.227 1.811l-.269-37.662c2.148.074 4.292.156 6.438.247-.017-2.524-.036-5.048-.054-7.569h-23.034ZM153.925 102.104c.027 6.665.056 13.334.082 20.003a262.53 262.53 0 0 0-3.099-.448l-.099-19.555h-10.095l.327 47.146c3.357.934 6.699 1.997 10.025 3.196l-.116-22.589c1.034.205 2.063.418 3.094.635l.095 23.107a134.135 134.135 0 0 1 9.881 4.296v-55.791h-10.095ZM48.254 91.269c-2.134-6.339-2.578-11.441-2.84-14.27-.542-.045-1.079-.09-1.611-.136.51-.203 1.552-.639 1.55-.651 8.312-3.28 18.634-6.691 28.954-9.441.331-.463.668-.912 1.01-1.347-11.637 2.313-23.634 5.35-33.038 8.391a101.053 101.053 0 0 0-2.579 4.749s.01 6.587 3.357 17.138a155.122 155.122 0 0 0 5.197-4.433ZM67.755 41.815c11.293 11.501 17.552 12.277 20.324 11.781-.701-.467-2.372-1.196-3.073-1.666l2.112.004-1.046-1.17 2.771.739c-1.575-1.838-3.726-3.376-6.055-4.65L75.83 44.38l.816-.237c-4.228-1.514-7.725-2.232-8.61-2.398l-.281.07ZM101.558 173.989l-1.29.904-10.096-9.303-6.371-.004c7.413 7.303 13.127 11.95 13.499 12.235l4.145.004 13.879-12.246h-2.329l-11.437 8.41Z" fill="#003CA0"/></svg>